<?xml version="1.0" standalone="no"?>
<!DOCTYPE svg PUBLIC "-//W3C//DTD SVG 20010904//EN"
 "http://www.w3.org/TR/2001/REC-SVG-20010904/DTD/svg10.dtd">
<svg version="1.0" xmlns="http://www.w3.org/2000/svg"
 width="1084.000000pt" height="1084.000000pt" viewBox="0 0 1084.000000 1084.000000"
 preserveAspectRatio="xMidYMid meet">
<metadata>
Created by potrace 1.11, written by Peter Selinger 2001-2013
</metadata>
<g transform="translate(0.000000,1084.000000) scale(0.100000,-0.100000)"
fill="#000000" stroke="none">
<path d="M8039 10266 c-5 -5 -73 -14 -163 -21 -38 -3 -72 -8 -76 -10 -3 -2
-25 -6 -49 -10 -54 -8 -115 -32 -160 -62 -19 -13 -43 -24 -55 -24 -12 -1 -34
-2 -50 -3 -17 -1 -34 -10 -40 -21 -24 -41 -73 -89 -130 -127 -34 -23 -76 -54
-94 -70 -18 -15 -54 -39 -80 -52 -68 -35 -125 -85 -194 -171 -33 -41 -63 -75
-67 -75 -4 0 -16 -8 -27 -18 -10 -10 -33 -27 -50 -40 -18 -12 -46 -44 -63 -70
-17 -27 -42 -54 -55 -61 -13 -8 -36 -35 -51 -62 -15 -27 -51 -76 -82 -109 -37
-40 -53 -65 -49 -76 4 -10 -4 -26 -22 -42 -15 -15 -35 -39 -45 -54 -21 -34
-78 -52 -113 -36 -19 9 -40 9 -82 0 -111 -22 -171 -25 -197 -8 -29 19 -48 20
-132 11 -40 -5 -73 -3 -90 4 -16 6 -48 13 -73 14 -25 2 -55 9 -68 16 -12 6
-43 11 -69 10 -85 -2 -235 10 -247 21 -20 16 -131 41 -188 42 -29 0 -82 9
-117 19 -35 11 -92 19 -127 19 -40 0 -89 8 -127 21 -40 14 -92 22 -147 24 -47
1 -98 8 -113 14 -16 6 -42 11 -58 11 -17 0 -40 5 -51 11 -12 6 -42 13 -67 14
-79 6 -135 13 -160 23 -14 5 -41 6 -60 2 -20 -3 -49 -4 -66 -2 -16 2 -59 5
-94 7 -34 2 -79 12 -100 21 -28 14 -57 17 -131 15 -52 -2 -142 -3 -200 -4 -65
-1 -109 -6 -115 -13 -5 -7 -44 -22 -85 -34 -41 -12 -103 -30 -138 -41 -34 -10
-73 -19 -87 -19 -13 0 -41 -11 -61 -25 -20 -14 -44 -25 -53 -26 -9 -1 -32 -2
-52 -3 -33 -1 -88 -37 -172 -111 -10 -8 -39 -32 -65 -52 -26 -19 -60 -49 -76
-64 -17 -16 -50 -39 -74 -50 -30 -15 -49 -32 -58 -54 -7 -18 -49 -65 -93 -104
-47 -43 -96 -98 -118 -134 -21 -34 -50 -73 -65 -86 -16 -12 -47 -55 -70 -95
-23 -39 -49 -82 -60 -95 -10 -13 -18 -30 -18 -37 0 -8 -16 -49 -36 -92 -82
-178 -81 -176 -121 -322 -21 -77 -44 -240 -45 -320 -1 -57 6 -122 17 -165 7
-27 16 -79 20 -115 5 -48 15 -80 40 -122 36 -61 54 -112 49 -140 -1 -10 6 -20
17 -23 10 -4 19 -14 19 -24 0 -28 62 -115 116 -162 29 -24 61 -60 73 -79 35
-59 49 -73 75 -75 14 -2 40 -8 58 -13 18 -6 61 -13 95 -16 35 -3 72 -10 83
-16 11 -6 38 -9 61 -8 36 3 50 11 107 68 37 36 67 71 68 79 2 8 18 30 37 50
21 22 40 54 47 81 6 25 30 82 52 128 39 78 40 85 29 122 -17 58 -30 66 -118
73 -151 12 -233 54 -306 158 -104 149 -150 225 -154 255 -2 18 -13 73 -24 121
-11 48 -22 113 -24 143 -3 30 -7 61 -10 68 -3 7 0 22 5 33 12 21 14 85 7 164
-2 28 0 64 5 80 5 17 12 46 15 65 5 35 39 75 94 107 15 9 44 38 65 64 26 33
46 49 62 49 14 0 26 9 34 25 13 28 84 77 143 99 50 18 154 63 179 77 18 10 76
18 187 23 31 2 60 5 65 8 5 3 18 2 29 -2 11 -4 33 -1 50 6 18 7 52 10 85 7 30
-2 71 -3 90 -2 57 4 103 3 145 -3 22 -4 58 -9 80 -12 37 -6 102 -11 260 -20
33 -2 80 -7 105 -11 25 -4 68 -9 95 -10 28 -1 82 -11 121 -24 50 -15 88 -21
130 -18 32 2 85 -3 117 -10 32 -7 69 -10 82 -7 12 3 36 -1 52 -9 16 -9 53 -16
83 -18 30 -1 73 -9 95 -16 22 -8 67 -16 100 -19 71 -6 134 -17 268 -50 76 -18
104 -21 125 -13 50 19 474 9 552 -14 47 -13 59 -13 87 -2 22 9 35 10 39 3 4
-6 21 -8 40 -5 22 4 37 1 45 -9 18 -21 19 -122 2 -168 -8 -23 -17 -86 -20
-141 -3 -55 -9 -107 -14 -116 -5 -9 -6 -27 -3 -40 2 -13 0 -51 -6 -84 -10 -61
-19 -181 -25 -340 -1 -49 -4 -92 -5 -95 -2 -5 -12 -306 -11 -350 0 -14 1 -71
3 -128 3 -115 0 -121 -62 -140 -45 -14 -212 -52 -227 -52 -6 0 -47 -17 -90
-37 -62 -29 -91 -37 -144 -38 -44 -1 -74 -8 -93 -20 -29 -19 -98 -25 -154 -12
-43 10 -80 -10 -157 -83 -33 -32 -69 -59 -80 -61 -10 -2 -29 -20 -42 -39 -12
-19 -34 -46 -48 -60 -14 -14 -25 -32 -25 -41 0 -9 -9 -26 -20 -39 -11 -13 -20
-28 -20 -34 0 -6 -16 -36 -35 -66 -39 -61 -43 -86 -17 -107 71 -55 64 -54 113
-31 24 11 61 21 82 21 21 1 41 7 45 13 9 13 56 31 103 39 21 3 42 12 49 20 7
8 21 15 31 15 10 0 38 8 61 19 52 23 108 42 128 45 8 1 45 16 82 34 37 18 98
40 135 49 37 9 75 22 83 29 27 23 88 44 127 44 21 0 47 6 58 13 21 14 51 24
98 33 l28 5 0 -58 c-2 -126 11 -303 27 -379 5 -24 5 -69 0 -108 -6 -47 -5 -72
3 -88 8 -14 14 -89 17 -198 6 -237 5 -231 3 -270 -1 -19 1 -48 4 -65 25 -143
28 -201 12 -234 -12 -24 -14 -38 -7 -51 5 -10 12 -65 15 -122 3 -57 7 -131 9
-164 2 -34 7 -67 10 -73 4 -6 7 -59 7 -118 0 -64 6 -133 15 -172 9 -36 17
-102 19 -146 6 -158 15 -251 28 -295 9 -33 10 -60 3 -103 -6 -42 -5 -73 4
-113 10 -43 11 -62 1 -94 -8 -29 -9 -45 -1 -60 9 -18 11 -101 8 -376 0 -39 5
-87 11 -106 18 -55 16 -177 -5 -241 -4 -12 -8 -34 -9 -51 -2 -17 -8 -56 -13
-86 -6 -30 -13 -73 -16 -95 -12 -91 -16 -112 -30 -150 -9 -22 -20 -62 -26 -89
-6 -27 -24 -66 -41 -87 -17 -21 -32 -51 -35 -66 -8 -48 -25 -91 -39 -103 -8
-7 -20 -30 -25 -51 -6 -22 -15 -39 -20 -39 -6 0 -10 -10 -10 -23 0 -12 -9 -30
-19 -39 -11 -9 -45 -54 -76 -100 -31 -45 -74 -108 -95 -138 -22 -30 -45 -70
-52 -88 -7 -17 -18 -32 -25 -32 -8 0 -18 -11 -22 -24 -5 -12 -29 -38 -53 -57
-24 -18 -49 -39 -56 -46 -7 -7 -17 -13 -22 -13 -5 0 -55 -28 -110 -63 -173
-106 -197 -116 -297 -123 -43 -3 -96 -9 -118 -14 -174 -39 -502 -43 -579 -6
-18 9 -51 18 -72 21 -62 9 -128 34 -164 60 -18 13 -46 27 -64 31 -17 4 -44 17
-61 30 -40 30 -114 64 -142 64 -13 0 -23 4 -23 10 0 26 -110 160 -131 160 -21
0 -105 83 -123 122 -10 20 -26 45 -36 56 -18 19 -38 55 -117 214 -18 37 -30
74 -27 82 3 8 -2 40 -11 71 -17 59 -28 173 -27 285 1 64 1 181 1 355 0 97 33
224 59 225 7 0 17 11 22 24 5 13 14 27 20 31 6 4 8 15 5 25 -4 11 7 42 25 76
40 75 45 81 88 95 20 6 69 30 107 52 58 33 80 40 133 42 35 1 81 -2 102 -7 25
-7 49 -7 67 -1 21 7 37 6 61 -5 17 -9 32 -19 32 -24 0 -4 14 -8 31 -8 17 0 42
-9 55 -19 15 -12 35 -18 49 -15 28 5 162 -75 172 -104 4 -9 15 -28 25 -41 10
-13 18 -38 18 -56 0 -27 8 -39 43 -65 35 -27 48 -31 82 -26 24 3 47 13 57 26
9 12 33 24 52 27 31 5 42 16 86 84 29 43 49 82 46 87 -3 5 6 25 20 46 32 47
35 65 24 129 -5 29 -11 80 -13 113 -3 39 -11 72 -23 88 -24 34 -174 152 -205
161 -13 4 -46 19 -72 32 -27 13 -51 22 -54 19 -3 -3 -17 1 -32 8 -38 19 -145
38 -199 35 -26 -1 -57 3 -70 10 -40 21 -61 21 -201 -4 -152 -26 -178 -35 -236
-81 -22 -18 -60 -42 -85 -55 -25 -13 -49 -30 -54 -38 -8 -14 -39 -49 -93 -107
-57 -62 -186 -220 -195 -240 -6 -12 -20 -26 -33 -32 -12 -6 -32 -31 -45 -56
-12 -25 -26 -46 -31 -46 -5 0 -15 -12 -21 -28 -7 -15 -29 -52 -49 -83 -19 -31
-38 -72 -42 -91 -3 -20 -19 -55 -36 -78 -17 -23 -40 -67 -51 -98 -12 -30 -32
-68 -45 -84 -19 -22 -23 -34 -16 -47 7 -12 2 -35 -15 -77 -14 -32 -27 -83 -29
-113 -2 -29 -11 -75 -20 -102 -12 -34 -13 -53 -6 -67 7 -13 6 -37 -4 -80 -23
-96 -26 -122 -16 -122 15 0 29 -85 36 -220 2 -36 6 -105 8 -155 5 -82 30 -176
57 -210 4 -5 15 -34 25 -64 11 -33 29 -64 46 -79 16 -13 29 -30 29 -38 0 -16
111 -156 170 -213 20 -20 61 -65 91 -100 76 -89 127 -139 151 -147 11 -3 57
-31 102 -62 57 -39 92 -56 116 -58 19 0 57 -15 85 -32 86 -53 251 -87 335 -69
3 1 23 -8 45 -19 35 -18 57 -20 175 -18 244 4 291 9 362 37 37 15 85 27 108
27 65 0 342 140 355 179 3 11 18 22 32 26 14 3 43 21 64 38 21 18 58 43 83 56
25 12 46 26 46 31 0 5 10 12 23 16 12 4 47 32 78 63 30 31 71 65 89 76 19 11
47 43 63 70 16 28 66 87 110 132 44 44 87 93 96 107 9 14 21 26 27 26 6 0 24
19 39 43 15 23 40 52 56 65 16 13 29 30 29 37 0 12 79 117 200 267 17 20 30
44 30 54 0 9 11 27 25 40 14 13 25 30 25 39 0 19 28 87 39 95 24 16 91 115 91
135 0 12 9 34 20 48 11 14 20 28 20 31 0 14 84 176 91 176 4 0 5 15 2 33 -4
24 2 48 21 85 14 28 25 64 24 79 -3 36 9 102 33 178 10 33 21 95 24 138 3 44
8 83 11 89 14 21 22 654 9 727 -5 28 -3 58 6 83 10 32 10 47 -3 94 -9 30 -16
93 -16 139 -1 47 -3 88 -5 93 -7 10 -20 112 -19 140 7 137 1 203 -22 270 -7
20 -12 57 -11 82 1 25 -3 56 -8 70 -5 14 -11 106 -13 205 -4 147 -8 184 -22
205 -20 30 -21 38 -10 69 12 35 18 210 7 238 -5 14 -4 25 2 29 16 10 -8 273
-31 329 -6 17 -11 60 -9 98 3 85 1 194 -4 276 -2 35 -1 81 3 102 4 21 4 42 -1
46 -7 8 -14 87 -11 129 3 30 46 46 136 49 41 2 82 7 91 12 10 6 37 6 70 0 41
-8 65 -7 95 3 49 16 58 9 41 -33 -50 -123 -36 -150 63 -120 11 3 31 16 45 29
14 13 49 33 78 45 29 12 53 25 53 30 0 5 16 15 35 23 24 10 36 23 41 43 11 45
42 98 86 148 38 43 108 148 108 164 0 3 21 21 45 40 25 18 52 48 60 65 8 17
27 44 42 60 34 37 34 74 0 126 l-27 40 -73 -3 c-63 -3 -84 -9 -165 -50 -51
-26 -99 -47 -107 -47 -7 0 -35 -10 -62 -22 -30 -14 -70 -22 -109 -23 -45 -1
-70 -7 -99 -26 -22 -13 -68 -36 -103 -50 -54 -22 -70 -24 -101 -16 -32 9 -46
6 -96 -17 -32 -14 -74 -29 -94 -32 -33 -5 -37 -3 -55 30 -20 37 -20 31 0 308
5 65 3 92 -6 103 -9 11 -15 60 -17 149 -3 115 -1 141 16 184 11 27 18 52 15
55 -6 6 -5 124 2 207 2 30 6 93 9 139 2 46 10 90 17 99 7 8 20 33 28 56 19 51
50 67 150 78 41 4 102 12 135 17 33 6 68 8 79 5 10 -4 39 5 67 21 34 18 56 24
72 19 35 -11 94 -6 135 13 20 9 62 17 92 18 104 3 236 31 285 59 28 17 65 29
93 31 56 3 96 13 131 31 14 8 33 14 42 14 9 0 22 7 29 15 7 8 18 15 24 15 7 0
45 17 86 39 41 21 87 41 103 45 15 3 27 11 27 16 0 5 18 22 40 36 22 14 42 34
45 44 5 17 134 100 155 100 6 0 20 20 31 45 11 24 28 50 39 58 34 24 119 139
147 199 22 48 32 59 62 69 51 16 60 26 95 99 18 36 46 85 64 109 36 49 36 69
0 127 -13 22 -30 55 -38 74 -7 19 -19 42 -26 50 -6 8 -20 33 -30 55 -12 25
-38 53 -73 77 -30 21 -59 48 -65 60 -7 13 -25 29 -41 37 -16 8 -38 22 -48 32
-11 10 -33 21 -49 24 -16 4 -48 17 -71 30 -23 13 -60 26 -82 29 -58 8 -230 17
-236 12z m-149 -526 c19 -1 48 -10 66 -20 17 -11 37 -20 43 -20 7 0 29 -17 51
-37 21 -21 62 -58 91 -83 28 -25 66 -67 84 -93 33 -48 36 -74 27 -179 -3 -26
-43 -48 -135 -74 -45 -12 -127 -38 -182 -57 -55 -20 -129 -38 -165 -42 -36 -3
-76 -8 -90 -10 -14 -2 -46 -6 -72 -9 -25 -3 -57 -10 -70 -15 -13 -4 -57 -9
-99 -10 -42 -1 -100 -9 -130 -17 -30 -8 -83 -17 -119 -20 -36 -2 -87 -7 -115
-10 -27 -2 -53 -5 -57 -5 -4 0 -21 -4 -38 -9 -16 -5 -32 -5 -35 0 -3 5 -18 6
-33 3 -30 -6 -58 -7 -114 -5 -32 2 -38 5 -38 25 0 12 11 42 25 67 14 25 34 64
45 87 13 30 31 48 59 63 23 11 41 27 41 36 0 24 29 62 66 84 18 12 36 29 39
39 3 10 25 29 48 41 23 13 56 41 72 64 20 26 44 45 69 54 21 6 56 27 77 46 22
18 59 40 82 49 76 27 162 52 172 48 23 -7 95 -2 112 8 11 7 51 9 103 6 47 -2
101 -5 120 -5z"/>
</g>
</svg>
