<?xml version="1.0" standalone="no"?>
<!DOCTYPE svg PUBLIC "-//W3C//DTD SVG 20010904//EN"
 "http://www.w3.org/TR/2001/REC-SVG-20010904/DTD/svg10.dtd">
<svg version="1.0" xmlns="http://www.w3.org/2000/svg"
 width="1010.000000pt" height="1010.000000pt" viewBox="0 0 1010.000000 1010.000000"
 preserveAspectRatio="xMidYMid meet">
<metadata>
Created by potrace 1.11, written by Peter Selinger 2001-2013
</metadata>
<g transform="translate(0.000000,1010.000000) scale(0.100000,-0.100000)"
fill="#000000" stroke="none">
<path d="M20 10060 c0 -48 4 -50 25 -10 20 39 19 50 -5 50 -17 0 -20 -7 -20
-40z"/>
<path d="M109 10059 c-7 -22 -30 -60 -51 -84 l-38 -43 0 -390 0 -390 54 -6
c63 -8 132 -49 158 -94 84 -142 -11 -321 -169 -322 l-43 0 0 -57 0 -58 145
-172 c80 -95 145 -177 145 -183 0 -5 -13 -10 -29 -10 -26 0 -45 18 -143 135
l-113 135 -3 -1228 c-1 -675 0 -1232 2 -1239 3 -6 18 -14 34 -17 65 -15 136
-102 144 -176 3 -31 0 -35 -23 -38 -24 -3 -27 1 -33 37 -7 48 -53 105 -96 120
l-30 10 0 -168 0 -168 40 -12 c47 -14 104 -61 127 -105 24 -46 21 -133 -7
-190 -24 -52 -82 -101 -131 -111 l-29 -7 0 -382 0 -383 53 14 c148 40 332 -31
424 -166 52 -76 73 -143 73 -236 0 -178 -118 -339 -286 -390 -54 -16 -168 -19
-226 -6 l-38 9 0 -1344 c0 -739 2 -1344 4 -1344 2 0 32 79 66 175 l63 176 41
-3 41 -3 157 -430 c86 -236 157 -438 157 -448 1 -14 -5 -18 -25 -15 -22 3 -30
13 -50 68 -13 36 -31 84 -40 108 l-16 42 -199 0 -199 0 0 -335 0 -335 1240 0
1240 0 0 3745 0 3745 405 0 404 0 3 103 3 102 28 3 27 3 0 -105 0 -106 375 0
375 0 0 105 0 105 25 0 25 0 0 -105 0 -105 190 0 190 0 0 105 0 105 25 0 25 0
0 -105 0 -105 233 0 232 0 19 28 c39 59 112 92 200 92 78 0 126 -20 179 -72
l48 -48 229 0 230 0 0 106 0 105 28 -3 27 -3 3 -102 3 -103 122 0 122 0 85
105 c76 93 89 104 118 104 40 1 40 -9 -1 -56 -18 -21 -55 -64 -81 -95 l-48
-58 576 0 576 0 0 106 0 105 28 -3 27 -3 3 -102 3 -103 229 0 230 0 0 105 0
105 30 0 30 0 0 -105 0 -105 351 2 351 3 17 45 c15 41 20 45 54 48 37 3 39 2
59 -46 l21 -49 405 -6 c223 -4 473 -12 555 -19 l149 -12 19 25 c38 49 39 49
-261 49 l-280 0 0 30 0 30 280 0 280 0 0 1255 0 1255 -195 0 -195 0 0 -85 0
-85 -47 0 -48 0 -53 85 -54 85 -174 0 -173 0 -3 -142 -3 -143 -25 0 -25 0 -3
143 -3 142 -409 0 -410 0 0 -60 0 -60 240 0 240 0 0 -25 0 -25 -265 0 -265 0
0 85 0 85 -332 -2 -333 -3 -29 -82 -30 -83 -47 0 -47 0 -33 85 -32 85 -508 0
-509 0 0 -60 0 -60 235 0 235 0 0 -25 0 -25 -265 0 -265 0 0 85 0 85 -575 0
-575 0 0 -60 0 -60 240 0 240 0 0 -25 0 -25 -265 0 -265 0 0 85 0 85 -429 0
-430 0 -41 -57 -41 -58 310 -3 311 -2 0 -25 0 -25 -345 0 -345 0 0 31 c0 20
13 50 36 81 19 28 33 52 31 54 -2 2 -130 3 -284 2 l-279 -3 47 -130 c27 -71
48 -136 49 -143 0 -9 -10 -12 -27 -10 -26 3 -31 12 -67 111 l-39 107 -227 0
-227 0 -39 -107 c-36 -99 -41 -108 -66 -111 -16 -2 -28 1 -28 7 0 8 59 177 89
254 l11 27 -260 0 -260 0 0 -145 0 -145 -25 0 -25 0 0 145 0 145 -235 0 -234
0 -3 -142 -3 -143 -25 0 -25 0 -3 143 -3 142 -505 0 -505 0 115 -136 c64 -75
113 -141 110 -145 -3 -5 -16 -9 -28 -9 -26 0 -56 30 -186 188 l-84 102 -108 0
-108 0 0 -145 0 -145 -25 0 -25 0 0 145 0 145 -225 0 -224 0 -12 -41z m2859
-1221 l2 -418 215 0 215 0 0 -25 0 -25 -245 0 -245 0 0 446 0 445 28 -3 27 -3
3 -417z m784 90 l3 -333 27 -51 c34 -64 88 -110 152 -129 63 -19 90 -19 155 1
39 11 67 29 101 64 76 75 80 97 80 467 l0 313 25 0 25 0 0 -337 0 -338 -29
-60 c-55 -115 -151 -175 -282 -175 -65 0 -85 4 -137 30 -65 33 -109 76 -144
143 -22 41 -23 51 -26 390 l-3 347 25 0 25 0 3 -332z m1173 125 c65 -115 124
-216 131 -226 10 -16 28 11 140 207 126 221 130 225 162 226 17 0 32 -2 32 -5
0 -3 -65 -118 -145 -256 l-144 -251 134 -233 c74 -128 136 -239 137 -246 2 -9
-7 -14 -27 -14 -28 0 -36 11 -154 217 l-125 216 -125 -219 c-116 -201 -128
-219 -153 -219 -16 0 -28 5 -28 12 0 7 61 119 136 249 l136 238 -142 248 c-79
136 -145 251 -147 256 -2 4 11 7 29 7 34 0 35 -2 153 -207z m3453 -215 l2
-418 215 0 215 0 0 -25 0 -25 -245 0 -245 0 0 446 0 445 28 -3 27 -3 3 -417z
m-1857 321 c77 -24 143 -102 151 -179 3 -31 0 -35 -23 -38 -24 -3 -27 1 -33
37 -16 102 -135 161 -232 115 -100 -47 -120 -183 -39 -260 25 -23 57 -38 117
-54 99 -26 124 -39 159 -77 41 -44 52 -73 52 -135 0 -74 -34 -142 -91 -183
-57 -40 -158 -48 -218 -17 -70 36 -124 113 -124 177 0 20 5 25 25 25 20 0 25
-6 31 -36 9 -51 77 -120 127 -129 103 -19 197 58 197 162 0 74 -58 131 -155
153 -109 25 -171 65 -207 134 -29 56 -21 155 15 213 52 82 154 120 248 92z
m1064 -4 c164 -43 276 -164 307 -334 32 -169 -69 -358 -231 -435 -61 -29 -74
-31 -176 -31 -99 0 -116 3 -168 27 -206 97 -296 344 -200 549 84 179 280 273
468 224z m1987 4 c201 -42 342 -231 325 -433 -14 -166 -114 -296 -276 -357
-83 -31 -223 -24 -306 16 -345 165 -299 668 70 770 63 17 119 18 187 4z
m-8292 -39 l0 -30 -220 0 -220 0 0 -150 0 -150 220 0 220 0 0 -30 0 -30 -220
0 -220 0 0 -155 0 -155 220 0 220 0 0 -25 0 -25 -250 0 -250 0 0 390 0 390
250 0 250 0 0 -30z m1290 0 l0 -30 -230 0 -230 0 0 -165 0 -165 230 0 230 0 0
-30 0 -30 -230 0 -230 0 -2 -222 -3 -223 -25 0 -25 0 -3 435 c-1 239 0 441 3
448 3 9 65 12 260 12 l255 0 0 -30z m-2099 -1521 c50 -16 105 -61 132 -112 21
-40 22 -53 22 -292 l0 -250 -28 -48 c-15 -26 -47 -60 -69 -75 -36 -24 -53 -27
-133 -30 -107 -4 -152 12 -203 73 -47 57 -52 92 -52 341 0 205 2 233 20 269
30 64 68 99 127 121 47 16 133 18 184 3z m900 -20 c59 -13 124 -65 146 -116
19 -47 17 -137 -6 -181 -46 -89 -99 -112 -260 -112 l-121 0 -2 -237 -3 -238
-27 -3 -28 -3 0 450 0 451 125 0 c68 0 147 -5 176 -11z m1109 -19 l0 -30 -240
0 -240 0 0 -150 0 -150 241 0 240 0 -3 -27 -3 -28 -237 -3 -238 -2 0 -155 0
-155 240 0 240 0 0 -25 0 -25 -265 0 -265 0 0 390 0 390 265 0 265 0 0 -30z
m-500 -1840 l0 -420 218 -2 c217 -3 217 -3 220 -25 l3 -23 -245 0 -246 0 0
445 0 445 25 0 25 0 0 -420z m-1076 319 c54 -15 121 -80 140 -136 24 -69 21
-85 -11 -81 -22 2 -29 10 -34 37 -15 72 -85 131 -157 131 -93 0 -162 -71 -162
-166 0 -87 46 -132 166 -164 131 -35 180 -73 203 -156 16 -59 13 -94 -13 -149
-41 -87 -103 -125 -201 -125 -95 0 -177 60 -204 149 -18 61 -15 71 19 71 25 0
30 -4 30 -25 0 -38 25 -80 66 -112 30 -22 47 -27 95 -28 65 0 98 18 137 76 20
29 23 43 20 93 -4 52 -8 63 -41 92 -22 21 -58 39 -94 49 -147 41 -207 83 -231
161 -52 176 97 332 272 283z m386 -1580 c174 -37 219 -272 72 -374 -39 -27
-51 -30 -142 -33 -55 -3 -100 -6 -100 -9 0 -2 84 -103 186 -224 102 -121 188
-227 191 -235 4 -12 -1 -15 -28 -12 -31 3 -52 25 -224 229 l-190 226 -5 -226
-5 -226 -25 0 -25 0 -3 435 c-1 239 0 441 3 448 6 16 222 17 295 1z m1180 -19
l0 -30 -225 0 -225 0 0 -150 0 -150 226 0 225 0 -3 -27 -3 -28 -222 -3 -223
-2 0 -155 0 -155 225 0 225 0 0 -25 0 -25 -250 0 -250 0 0 390 0 390 250 0
250 0 0 -30z m-539 -1521 c94 -29 149 -112 149 -227 0 -70 -1 -72 -25 -72 -24
0 -25 3 -25 58 0 40 -7 71 -22 102 -34 66 -66 84 -152 88 -91 5 -136 -14 -174
-71 -27 -40 -27 -42 -30 -253 -4 -231 2 -274 45 -325 34 -40 79 -59 142 -59
61 0 97 13 135 48 39 37 56 81 56 147 0 53 1 55 26 55 l26 0 -4 -82 c-4 -95
-26 -139 -95 -186 -33 -24 -50 -27 -129 -30 -101 -4 -144 10 -196 65 -54 56
-58 81 -58 345 0 225 1 245 21 285 48 99 186 149 310 112z m-1161 -39 l0 -30
-240 0 -240 0 0 -150 0 -150 241 0 240 0 -3 -27 -3 -28 -237 -3 -238 -2 0
-155 0 -155 240 0 240 0 0 -25 0 -25 -265 0 -265 0 0 390 0 390 265 0 265 0 0
-30z m441 -1537 c66 -34 109 -92 116 -157 5 -43 4 -46 -19 -46 -20 0 -26 7
-35 43 -22 80 -80 127 -158 127 -151 0 -222 -194 -104 -282 34 -25 49 -32 161
-64 66 -19 125 -64 144 -110 37 -89 0 -216 -78 -270 -37 -26 -49 -29 -123 -29
-70 0 -86 3 -118 25 -52 35 -88 91 -95 145 -4 43 -3 45 20 45 21 0 27 -6 32
-31 15 -76 89 -139 163 -139 50 0 114 41 140 90 26 50 29 87 9 134 -19 46 -60
72 -152 97 -97 26 -120 38 -161 81 -40 42 -54 80 -54 144 0 95 41 160 126 200
67 32 119 31 186 -3z m1059 -23 l0 -30 -220 0 -220 0 0 -150 0 -150 220 0 220
0 0 -30 0 -30 -220 0 -220 0 0 -155 0 -155 220 0 220 0 0 -25 0 -25 -250 0
-250 0 0 390 0 390 250 0 250 0 0 -30z"/>
<path d="M7359 9087 c-111 -47 -186 -133 -215 -247 -64 -253 173 -491 426
-426 109 28 196 101 243 204 33 72 31 207 -4 283 -37 79 -90 133 -167 171 -90
45 -199 50 -283 15z"/>
<path d="M9373 9091 c-158 -54 -260 -222 -233 -385 25 -157 134 -268 292 -297
57 -10 76 -10 134 4 113 28 189 89 244 197 35 67 39 195 11 271 -67 176 -270
272 -448 210z"/>
<path d="M279 7529 c-20 -12 -46 -39 -58 -59 -20 -35 -21 -52 -21 -274 0 -263
2 -274 65 -322 28 -21 49 -28 103 -31 86 -6 145 22 180 82 22 39 22 47 20 282
-3 266 -3 266 -72 317 -42 32 -168 34 -217 5z"/>
<path d="M1130 7375 l0 -157 118 4 c137 5 172 19 210 84 40 68 19 145 -52 198
-24 18 -45 21 -152 24 l-124 4 0 -157z"/>
<path d="M1050 4254 l0 -157 120 5 c108 5 124 8 159 31 74 49 90 151 34 218
-41 48 -78 59 -203 59 l-110 0 0 -156z"/>
<path d="M3075 10090 c-4 -7 67 -10 205 -10 138 0 209 3 205 10 -4 6 -83 10
-205 10 -122 0 -201 -4 -205 -10z"/>
<path d="M7394 10083 c3 -10 14 -40 25 -67 l18 -49 22 57 c11 31 21 61 21 66
0 6 -21 10 -46 10 -39 0 -45 -3 -40 -17z"/>
<path d="M9575 10073 c10 -14 26 -41 37 -60 11 -18 22 -33 24 -33 2 0 4 27 4
60 l0 60 -41 0 -41 0 17 -27z"/>
<path d="M20 8934 l0 -156 43 7 c85 14 136 62 144 138 10 86 -65 167 -155 167
l-32 0 0 -156z"/>
<path d="M5178 7528 c-21 -12 -38 -26 -38 -30 0 -4 66 -8 146 -8 135 0 145 1
133 17 -40 47 -176 59 -241 21z"/>
<path d="M8847 7510 c-3 -12 0 -20 8 -20 8 0 11 8 8 20 -3 11 -7 20 -8 20 -1
0 -5 -9 -8 -20z"/>
<path d="M3690 4616 l0 -1684 58 -28 c69 -35 112 -91 119 -158 5 -43 4 -46
-19 -46 -20 0 -26 7 -36 44 -14 53 -52 101 -92 115 l-30 10 0 -168 0 -168 39
-13 c52 -17 110 -65 127 -106 48 -115 -25 -272 -138 -299 l-28 -7 1 -397 c0
-218 3 -391 5 -385 3 6 198 539 433 1185 l429 1174 -219 3 -219 2 0 390 0 390
265 0 265 0 0 -30 0 -30 -240 0 -240 0 0 -150 0 -150 241 0 240 0 -3 -27 -3
-28 -237 -3 -238 -2 0 -155 0 -155 204 0 204 0 10 28 c5 15 215 589 466 1275
251 687 456 1250 456 1253 0 2 -409 4 -910 4 l-910 0 0 -1684z m501 1423 c77
-24 143 -102 151 -179 3 -31 0 -35 -23 -38 -24 -3 -27 1 -33 37 -16 102 -135
161 -232 115 -100 -47 -120 -183 -39 -260 25 -23 57 -38 117 -54 99 -26 124
-39 159 -77 41 -44 52 -73 52 -135 0 -74 -34 -142 -91 -183 -57 -40 -158 -48
-218 -17 -70 36 -124 113 -124 177 0 20 5 25 25 25 20 0 25 -6 31 -36 9 -51
77 -120 127 -129 103 -19 197 58 197 162 0 74 -58 131 -155 153 -109 25 -171
65 -207 134 -29 56 -21 155 15 213 52 82 154 120 248 92z m1139 -39 l0 -30
-160 0 -160 0 0 -420 0 -420 -24 0 c-13 0 -27 7 -30 16 -3 9 -6 198 -6 420 l0
404 -160 0 -160 0 0 30 0 30 350 0 350 0 0 -30z"/>
<path d="M6710 6183 l-45 -118 -5 -465 -5 -465 -25 0 -25 0 -3 243 -2 242 -48
0 -47 0 -207 -568 c-115 -312 -208 -570 -208 -574 0 -4 51 -9 113 -10 l112 -3
3 -27 3 -28 -129 0 -129 0 -60 -162 -60 -163 189 -3 188 -2 0 -30 0 -30 -201
-2 -201 -3 -26 -65 c-22 -56 -26 -86 -31 -220 l-6 -155 -25 0 c-23 0 -25 5
-30 52 -5 51 -19 15 -430 -1110 l-426 -1162 38 -3 37 -3 233 -363 233 -363 3
418 2 419 25 0 25 0 0 -446 0 -445 -47 3 -47 3 -225 350 -226 349 -3 -412 -2
-412 -25 0 -25 0 -2 440 -3 439 -240 -655 c-132 -361 -241 -660 -243 -665 -2
-5 969 -9 2458 -9 2341 0 2462 1 2455 18 -6 16 -185 502 -207 564 l-9 26 -57
-26 c-51 -24 -69 -27 -167 -27 -103 0 -114 2 -178 32 -207 98 -292 344 -190
552 51 105 172 200 276 217 20 4 37 8 37 10 0 22 -298 809 -316 836 -15 21
-29 59 -33 90 -4 29 -123 368 -264 753 -141 385 -380 1038 -531 1450 l-274
750 -169 5 -168 5 0 385 0 385 23 3 c12 2 22 6 22 9 0 4 -21 64 -47 135 l-47
128 -156 0 -156 0 -44 -117z m458 -1835 l2 -228 230 0 230 0 0 230 0 230 30 0
30 0 -2 -502 -3 -503 -25 0 -25 0 -3 243 -2 242 -230 0 -230 0 0 -229 c0 -126
-3 -236 -6 -245 -3 -9 -17 -16 -30 -16 l-24 0 0 506 0 505 28 -3 27 -3 3 -227z
m-1428 -1748 l0 -420 215 0 215 0 0 -25 0 -25 -242 2 -243 3 -3 430 c-1 237 0
436 3 443 2 6 16 12 30 12 l25 0 0 -420z m1191 320 c170 -32 304 -172 328
-342 25 -180 -65 -351 -229 -431 -61 -30 -71 -32 -175 -32 -103 0 -114 2 -178
32 -256 122 -313 458 -112 659 100 101 227 140 366 114z m1008 0 c82 -23 161
-117 161 -192 0 -23 -4 -28 -25 -28 -19 0 -26 6 -30 28 -10 50 -42 97 -81 119
-107 62 -232 -5 -242 -129 -3 -44 0 -59 20 -88 33 -49 80 -77 149 -91 85 -17
159 -63 187 -119 54 -107 9 -235 -102 -292 -57 -29 -158 -23 -214 15 -46 30
-86 93 -96 150 -7 36 -6 37 22 37 26 0 30 -4 36 -39 12 -79 108 -142 191 -127
83 16 147 117 125 197 -18 65 -63 97 -174 125 -133 33 -199 106 -200 219 -1
149 134 255 273 215z m-1760 -1731 l155 -270 20 34 c12 19 82 141 156 270 132
232 136 236 168 237 17 0 32 -2 32 -5 0 -3 -79 -142 -175 -308 l-175 -303 0
-197 0 -197 -25 0 -25 0 0 197 0 197 -175 303 c-96 167 -175 306 -175 308 0 3
15 5 33 5 31 -1 34 -5 186 -271z m1561 6 c84 -146 156 -265 159 -265 4 0 76
119 160 265 145 251 155 265 182 265 16 0 29 -4 29 -9 0 -6 -75 -139 -167
-298 l-168 -288 -5 -205 -5 -205 -25 0 -25 0 -5 205 -5 205 -167 288 c-93 159
-168 293 -168 298 0 5 13 9 29 9 28 0 37 -14 181 -265z"/>
<path d="M6738 2851 c-108 -43 -178 -113 -218 -218 -18 -47 -21 -73 -18 -134
8 -136 81 -243 208 -303 128 -61 284 -34 389 67 86 83 125 212 101 329 -15 71
-72 162 -127 204 -94 71 -234 94 -335 55z"/>
<path d="M8354 6283 c3 -10 163 -450 355 -978 336 -921 350 -957 351 -897 l0
62 125 0 c161 0 216 -12 268 -59 22 -20 46 -50 54 -68 19 -47 17 -137 -6 -181
-44 -85 -101 -112 -237 -112 -87 0 -96 -2 -92 -17 8 -30 899 -2478 904 -2482
2 -2 4 127 4 287 l0 292 -95 0 -95 0 0 445 0 445 25 0 25 0 0 -420 0 -420 70
0 70 0 0 755 0 755 -70 0 -70 0 0 390 0 390 70 0 70 0 0 894 c0 843 -1 895
-17 900 -10 3 -97 12 -193 21 -135 11 -329 15 -848 15 -637 0 -673 -1 -668
-17z m1084 -285 l3 -28 -225 0 -226 0 0 -150 0 -150 226 0 225 0 -3 -27 -3
-28 -222 -3 -223 -2 0 -155 0 -155 225 0 225 0 0 -25 0 -25 -252 2 -253 3 -3
375 c-1 206 0 381 3 388 3 10 59 12 252 10 l248 -3 3 -27z"/>
<path d="M7170 5820 l0 -150 60 0 c33 0 60 3 60 8 1 18 -104 292 -112 292 -4
0 -8 -67 -8 -150z"/>
<path d="M6565 5783 c-16 -43 -30 -84 -33 -90 -3 -9 7 -13 32 -13 l36 0 0 90
c0 50 -2 90 -4 90 -2 0 -16 -35 -31 -77z"/>
<path d="M7170 5455 l0 -155 131 0 c101 0 130 3 126 13 -2 6 -28 76 -57 155
l-52 142 -74 0 -74 0 0 -155z"/>
<path d="M20 5440 c0 -166 1 -168 60 -127 63 43 88 133 55 197 -16 30 -80 80
-102 80 -10 0 -13 -36 -13 -150z"/>
<path d="M58 4418 l-38 -12 0 -327 0 -327 33 -11 c88 -29 188 -21 270 21 212
107 256 398 86 566 -68 67 -136 95 -233 98 -45 2 -98 -2 -118 -8z"/>
<path d="M9120 4290 c0 -85 4 -131 15 -157 l15 -36 104 5 c120 5 158 22 194
84 40 68 19 145 -52 198 -24 18 -45 21 -152 24 l-124 4 0 -122z"/>
<path d="M9990 4260 l0 -150 45 0 45 0 0 150 0 150 -45 0 -45 0 0 -150z"/>
<path d="M9990 3895 l0 -155 45 0 45 0 0 155 0 155 -45 0 -45 0 0 -155z"/>
<path d="M3690 2321 c0 -106 3 -151 11 -151 48 0 119 92 119 153 0 63 -45 122
-107 141 l-23 7 0 -150z"/>
<path d="M8808 1291 c-108 -43 -178 -113 -218 -218 -18 -47 -21 -73 -18 -134
8 -136 81 -243 208 -303 56 -27 76 -31 145 -30 68 0 90 5 142 30 l62 29 -118
320 c-96 261 -121 320 -137 322 -10 1 -40 -6 -66 -16z"/>
<path d="M179 1254 c-101 -264 -159 -440 -159 -484 l0 -50 191 0 c178 0 191 1
184 18 -3 9 -49 134 -101 277 -53 143 -97 262 -99 264 -3 2 -9 -9 -16 -25z"/>
</g>
</svg>
